<svg xmlns="http://www.w3.org/2000/svg" viewBox="0 0 1200 900" role="img" aria-labelledby="title desc">
  <title id="title">Inspector Pro cover</title>
  <desc id="desc">A clean visual showing a phone inspection flow and generated report preview.</desc>
  <defs>
    <linearGradient id="bg" x1="0" y1="0" x2="1" y2="1">
      <stop offset="0%" stop-color="#cf7480"/>
      <stop offset="55%" stop-color="#e88962"/>
      <stop offset="100%" stop-color="#f1ba59"/>
    </linearGradient>
    <linearGradient id="screen" x1="0" y1="0" x2="0" y2="1">
      <stop offset="0%" stop-color="#233149"/>
      <stop offset="100%" stop-color="#111827"/>
    </linearGradient>
  </defs>

  <rect width="1200" height="900" rx="36" fill="url(#bg)"/>
  <circle cx="170" cy="128" r="118" fill="#ffffff" opacity="0.1"/>
  <circle cx="1040" cy="118" r="92" fill="#ffffff" opacity="0.08"/>

  <g transform="translate(120 130)">
    <rect x="0" y="0" width="290" height="600" rx="46" fill="url(#screen)" stroke="#ffffff" stroke-opacity="0.24" stroke-width="4"/>
    <rect x="98" y="18" width="96" height="10" rx="5" fill="#60718a"/>
    <rect x="24" y="56" width="242" height="510" rx="28" fill="#f5f0eb"/>

    <rect x="44" y="82" width="202" height="170" rx="20" fill="#d9e5ed"/>
    <path d="M66 214 L126 148 L168 176 L212 128 L230 214" fill="none" stroke="#d66558" stroke-width="10" stroke-linecap="round" stroke-linejoin="round"/>
    <circle cx="232" cy="126" r="14" fill="#ffffff" stroke="#d66558" stroke-width="7"/>
    <circle cx="120" cy="132" r="26" fill="#89a07c"/>

    <rect x="44" y="274" width="202" height="60" rx="18" fill="#ffffff"/>
    <rect x="62" y="292" width="72" height="12" rx="6" fill="#d66558"/>
    <rect x="62" y="312" width="146" height="10" rx="5" fill="#d5dde8"/>

    <rect x="44" y="350" width="202" height="60" rx="18" fill="#ffffff"/>
    <rect x="62" y="368" width="72" height="12" rx="6" fill="#d66558"/>
    <rect x="62" y="388" width="132" height="10" rx="5" fill="#d5dde8"/>

    <rect x="44" y="434" width="202" height="92" rx="20" fill="#ffffff"/>
    <rect x="62" y="458" width="76" height="34" rx="17" fill="#d66558"/>
    <rect x="148" y="458" width="76" height="34" rx="17" fill="#efc366"/>
    <rect x="62" y="504" width="162" height="10" rx="5" fill="#d5dde8"/>
  </g>

  <g transform="translate(500 154)">
    <rect x="0" y="0" width="578" height="558" rx="34" fill="#fff8f3" stroke="#ffffff" stroke-opacity="0.24" stroke-width="4"/>
    <rect x="40" y="42" width="226" height="28" rx="14" fill="#e8edf3"/>
    <rect x="420" y="42" width="118" height="28" rx="14" fill="#d66558"/>

    <rect x="40" y="108" width="240" height="148" rx="24" fill="#ffffff"/>
    <rect x="62" y="132" width="196" height="88" rx="18" fill="#dce6ee"/>
    <path d="M82 202 L132 154 L164 176 L206 142 L236 202" fill="none" stroke="#d66558" stroke-width="9" stroke-linecap="round" stroke-linejoin="round"/>

    <rect x="304" y="108" width="234" height="148" rx="24" fill="#ffffff"/>
    <rect x="334" y="140" width="164" height="14" rx="7" fill="#e8edf3"/>
    <rect x="334" y="170" width="132" height="14" rx="7" fill="#dce6ee"/>
    <rect x="334" y="200" width="154" height="14" rx="7" fill="#e8edf3"/>

    <rect x="40" y="292" width="498" height="226" rx="26" fill="#ffffff"/>
    <rect x="74" y="332" width="110" height="42" rx="21" fill="#f3ddd6"/>
    <rect x="208" y="332" width="110" height="42" rx="21" fill="#f8e4c6"/>
    <rect x="342" y="332" width="110" height="42" rx="21" fill="#f3ddd6"/>
    <path d="M184 353 L208 353" stroke="#d59a7d" stroke-width="5" stroke-linecap="round"/>
    <path d="M318 353 L342 353" stroke="#d59a7d" stroke-width="5" stroke-linecap="round"/>
    <rect x="74" y="408" width="424" height="14" rx="7" fill="#dce6ee"/>
    <rect x="74" y="438" width="364" height="14" rx="7" fill="#e8edf3"/>
    <rect x="74" y="468" width="390" height="14" rx="7" fill="#dce6ee"/>
  </g>
</svg>
